<?xml version="1.0" encoding="UTF-8"?> <svg xmlns="http://www.w3.org/2000/svg" width="31.298" height="29.915" viewBox="0 0 31.298 29.915"><g id="g5891" transform="translate(0)"><g id="shapes" transform="translate(0 0)"><rect id="rect11" width="6.71" height="20.182" transform="translate(0.393 9.733)" fill="#0077b5"></rect><path id="path13-0" d="M541.995,136.7a3.5,3.5,0,1,0-.089,6.973h.044a3.5,3.5,0,1,0,.045-6.973Z" transform="translate(-538.2 -136.7)" fill="#0077b5"></path><path id="path15" d="M842.552,386.3a6.667,6.667,0,0,0-6.046,3.331v-2.856H829.8c.089,1.892,0,20.182,0,20.182h6.71V395.688a4.6,4.6,0,0,1,.223-1.639,3.67,3.67,0,0,1,3.442-2.452c2.426,0,3.4,1.851,3.4,4.562v10.8h6.71V395.384C850.278,389.186,846.966,386.3,842.552,386.3Z" transform="translate(-818.984 -377.042)" fill="#0077b5"></path></g></g></svg> 