<?xml version="1.0" encoding="UTF-8"?> <svg xmlns="http://www.w3.org/2000/svg" id="layer1" width="36.212" height="29.43" viewBox="0 0 36.212 29.43"><path id="path3611" d="M551.568,599.288c13.666,0,21.139-11.321,21.139-21.138q0-.482-.021-.96a15.116,15.116,0,0,0,3.706-3.847,14.816,14.816,0,0,1-4.267,1.17,7.456,7.456,0,0,0,3.267-4.109,14.9,14.9,0,0,1-4.718,1.8,7.436,7.436,0,0,0-12.66,6.775,21.094,21.094,0,0,1-15.314-7.762,7.435,7.435,0,0,0,2.3,9.918,7.375,7.375,0,0,1-3.365-.929c0,.031,0,.061,0,.095a7.432,7.432,0,0,0,5.961,7.283,7.41,7.41,0,0,1-3.355.127,7.437,7.437,0,0,0,6.94,5.16,14.9,14.9,0,0,1-9.227,3.18,15.119,15.119,0,0,1-1.772-.1,21.032,21.032,0,0,0,11.389,3.337" transform="translate(-540.179 -569.858)" fill="#1da1f2"></path></svg> 